<?xml version="1.0" encoding="UTF-8"?><svg xmlns="http://www.w3.org/2000/svg" xmlns:xlink="http://www.w3.org/1999/xlink" viewBox="0 0 700 300"><defs><linearGradient id="b" x1="0" y1="150" x2="700" y2="150" gradientUnits="userSpaceOnUse"><stop offset="0" stop-color="#141218"/><stop offset="1" stop-color="#211f26"/></linearGradient><linearGradient id="d" x1="318.85" y1="224.44" x2="440.02" y2="165.56" gradientTransform="translate(0 302) scale(1 -1)" gradientUnits="userSpaceOnUse"><stop offset=".1" stop-color="#76b3e1"/><stop offset=".3" stop-color="#dcf2fd"/><stop offset="1" stop-color="#76b3e1"/></linearGradient><linearGradient id="e" x1="385.47" y1="195.81" x2="364.25" y2="125.15" gradientTransform="translate(0 302) scale(1 -1)" gradientUnits="userSpaceOnUse"><stop offset="0" stop-color="#76b3e1"/><stop offset=".5" stop-color="#4377bb"/><stop offset="1" stop-color="#1f3b77"/></linearGradient><linearGradient id="f" x1="310" y1="164.94" x2="432.54" y2="81.63" gradientTransform="translate(0 302) scale(1 -1)" gradientUnits="userSpaceOnUse"><stop offset="0" stop-color="#315aa9"/><stop offset=".5" stop-color="#518ac8"/><stop offset="1" stop-color="#315aa9"/></linearGradient><linearGradient id="g" x1="365.47" y1="155.02" x2="316.03" y2="-26.3" gradientTransform="translate(0 302) scale(1 -1)" gradientUnits="userSpaceOnUse"><stop offset="0" stop-color="#4377bb"/><stop offset=".5" stop-color="#1a336b"/><stop offset="1" stop-color="#1a336b"/></linearGradient><linearGradient id="h" x1="-560" y1="-390" x2="-559" y2="-390" gradientTransform="translate(3037.32 3648.65) rotate(90) scale(6.26 -6.26)" gradientUnits="userSpaceOnUse"><stop offset="0" stop-color="#78c0e8"/><stop offset="1" stop-color="#31a0d6"/></linearGradient><radialGradient id="i" cx="-560" cy="-390" fx="-560" fy="-390" r="1" gradientTransform="translate(28630.72 -19379.04) scale(50.06 -50.06)" gradientUnits="userSpaceOnUse"><stop offset="0" stop-color="#fde030"/><stop offset=".5" stop-color="#fde030"/><stop offset=".92" stop-color="#f7c02b"/><stop offset="1" stop-color="#f4a223"/></radialGradient><radialGradient id="j" cx="-560" cy="-390" fx="-560" fy="-390" r="1" gradientTransform="translate(28630.72 -19379.04) scale(50.06 -50.06)" gradientUnits="userSpaceOnUse"><stop offset="0" stop-color="#fde030"/><stop offset=".5" stop-color="#fde030"/><stop offset=".92" stop-color="#f7c02b"/><stop offset="1" stop-color="#f4a223"/></radialGradient></defs><g id="a"><rect width="700" height="300" rx="28" ry="28" fill="url(#b)" stroke-width="0"/></g><g id="c"><circle cx="145.28" cy="169.97" r="33.84" fill="#00e676" stroke-width="0"/><rect x="77.6" y="102.29" width="67.68" height="67.68" rx="8" ry="8" fill="#fff" stroke-width="0"/><rect x="56" y="80.69" width="144" height="144" rx="24" ry="24" fill="none" stroke="#49454f" stroke-miterlimit="10"/><path d="M145.28,136.13c-18.69,0-33.84,15.15-33.84,33.84h25.84c4.42,0,8-3.58,8-8v-25.84Z" fill="#b2ff59" stroke-width="0"/><path d="M450.82,108.51s-51.58-37.96-91.49-29.2l-2.92.97c-5.84,1.95-10.71,4.87-13.63,8.76l-1.95,2.92-14.6,25.31,25.31,4.87c10.71,6.81,24.33,9.73,36.98,6.81l44.77,8.76,17.52-29.2Z" fill="#76b3e1" stroke-width="0"/><path d="M450.82,108.51s-51.58-37.96-91.49-29.2l-2.92.97c-5.84,1.95-10.71,4.87-13.63,8.76l-1.95,2.92-14.6,25.31,25.31,4.87c10.71,6.81,24.33,9.73,36.98,6.81l44.77,8.76,17.52-29.2Z" fill="url(#d)" isolation="isolate" opacity=".3" stroke-width="0"/><path d="M342.79,108.51l-3.89.97c-16.55,4.87-21.41,20.44-12.65,34.06,9.73,12.65,30.17,19.47,46.72,14.6l60.34-20.44s-51.58-37.96-90.52-29.2Z" fill="#518ac8" stroke-width="0"/><path d="M342.79,108.51l-3.89.97c-16.55,4.87-21.41,20.44-12.65,34.06,9.73,12.65,30.17,19.47,46.72,14.6l60.34-20.44s-51.58-37.96-90.52-29.2Z" fill="url(#e)" isolation="isolate" opacity=".3" stroke-width="0"/><path d="M422.6,152.31c-11.15-13.93-29.62-19.7-46.72-14.6l-60.34,19.47-19.47,34.06,109.01,18.49,19.47-35.04c3.89-6.81,2.92-14.6-1.95-22.39Z" fill="url(#f)" stroke-width="0"/><path d="M403.13,186.37c-11.15-13.93-29.62-19.7-46.72-14.6l-60.34,19.47s51.58,38.93,91.49,29.2l2.92-.97c16.55-4.87,22.39-20.44,12.65-33.09Z" fill="url(#g)" stroke-width="0"/><path d="M246,155h-14.67c-.57,0-1.04-.19-1.42-.58-.38-.39-.58-.86-.58-1.43s.19-1.04.58-1.42c.38-.38.86-.57,1.42-.57h14.67v-14.67c0-.57.19-1.04.58-1.43.39-.38.86-.57,1.43-.57s1.04.19,1.42.57c.38.38.57.86.57,1.43v14.67h14.67c.57,0,1.04.19,1.43.58.38.39.57.86.57,1.43s-.19,1.04-.57,1.42c-.38.38-.86.57-1.43.57h-14.67v14.67c0,.57-.19,1.04-.58,1.42-.39.38-.86.58-1.43.58s-1.04-.19-1.42-.58c-.38-.38-.57-.86-.57-1.42v-14.67Z" fill="#cac4d0" stroke-width="0"/><rect x="216" y="121" width="64" height="64" fill="none" stroke-width="0"/><path d="M475.2,171.35c-1.11,0-2.06-.39-2.83-1.17s-1.17-1.72-1.17-2.83.39-2.06,1.17-2.83,1.72-1.17,2.83-1.17h34.67c1.11,0,2.06.39,2.83,1.17s1.17,1.72,1.17,2.83-.39,2.06-1.17,2.83-1.72,1.17-2.83,1.17h-34.67ZM475.2,152.69c-1.11,0-2.06-.39-2.83-1.17s-1.17-1.72-1.17-2.83.39-2.06,1.17-2.83,1.72-1.17,2.83-1.17h34.67c1.11,0,2.06.39,2.83,1.17s1.17,1.72,1.17,2.83-.39,2.06-1.17,2.83-1.72,1.17-2.83,1.17h-34.67Z" fill="#cac4d0" stroke-width="0"/><rect x="460.53" y="126.02" width="64" height="64" fill="none" stroke-width="0"/><path d="M630.32,143.18c.81.75,1.69,1.52,2.62,2.3s1.91,1.58,2.91,2.39h-80.25c1.56-1.25,3.17-2.55,4.83-3.89s2.86-2.33,3.61-2.95c-1.5-.69-3.44-1.39-5.81-2.11s-4.73-1.39-7.08-2.02-4.31-1.14-5.91-1.55l-2.39-.61,21.19-4.12-1.55-1.12c-1.03-.75-2.34-1.7-3.94-2.86s-3.27-2.38-5.02-3.66-3.36-2.45-4.83-3.52-2.55-1.88-3.23-2.44c1.12.06,2.64.16,4.55.28s3.92.23,6.05.33,4.09.19,5.91.28,3.19.14,4.12.14c-.5-1.38-1.17-2.95-2.02-4.73s-1.69-3.52-2.53-5.2-1.55-3.08-2.11-4.17l-.84-1.64,2.02.89c1.34.59,3.05,1.31,5.11,2.16s4.2,1.67,6.42,2.48,4.2,1.41,5.95,1.78c0-.81-.06-2.06-.19-3.75s-.3-3.44-.52-5.25-.41-3.36-.56-4.64l-.23-1.92,1.12,1.55c.75,1.03,1.67,2.28,2.77,3.75s2.19,2.88,3.28,4.22,1.98,2.27,2.67,2.77c.81-1.25,1.73-2.58,2.77-3.98s2.03-2.73,3-3.98,1.77-2.27,2.39-3.05l.94-1.17,1.08,1.31c.72.88,1.61,1.97,2.67,3.28s2.17,2.72,3.33,4.22,2.14,2.91,2.95,4.22c.75-.56,1.64-1.33,2.67-2.3s2.03-1.95,3-2.95,1.77-1.84,2.39-2.53l.94-1.03v1.27c0,.84-.02,1.88-.05,3.09s-.05,2.44-.05,3.66v2.95c1.31-.31,2.95-1,4.92-2.06s4.03-2.3,6.19-3.7,4.17-2.77,6.05-4.08,3.39-2.41,4.55-3.28l1.73-1.31-10.69,25.97,19.5-1.59-2.02.94c-1.34.62-2.94,1.42-4.78,2.39s-3.58,1.91-5.2,2.81-2.78,1.64-3.47,2.2c1.56.62,3.34,1.38,5.34,2.25s3.95,1.7,5.86,2.48,3.48,1.42,4.73,1.92l1.88.75-2.02.89c-1.34.59-3.02,1.31-5.02,2.16s-4.06,1.73-6.19,2.67-3.97,1.75-5.53,2.44Z" fill="#f15a24" stroke-width="0"/><rect x="582.1" y="129.88" width="27.83" height="17.97" fill="url(#h)" stroke-width="0"/><path d="M645.32,138.21c.25.56.38,1.12.38,1.69,0,1.06-.39,1.98-1.17,2.77s-1.73,1.17-2.86,1.17c-.62,0-1.22-.16-1.78-.47-.25.06-.5.09-.75.09-1.12,0-2.08-.39-2.86-1.17s-1.17-1.7-1.17-2.77c0-.88.25-1.66.75-2.34s1.12-1.16,1.88-1.41c.25-.81.73-1.5,1.45-2.06s1.52-.84,2.39-.84c1.12,0,2.08.39,2.86,1.17s1.17,1.7,1.17,2.77c0,.5-.09.97-.28,1.41Z" fill="#ffea5c" stroke-width="0"/><path d="M630.5,95.55c.94-.38,1.86-.36,2.77.05s1.55,1.08,1.92,2.02c1.19.38,2,1.12,2.44,2.25.38.94.36,1.88-.05,2.81s-1.11,1.59-2.11,1.97c-.94.31-1.86.27-2.77-.14s-1.55-1.05-1.92-1.92c-1.19-.38-2-1.12-2.44-2.25-.38-.94-.34-1.88.09-2.81s1.12-1.59,2.06-1.97Z" fill="#5c5cff" stroke-width="0"/><path d="M556.82,133.24c.75.25,1.36.7,1.83,1.36s.67,1.39.61,2.2c-.06.94-.45,1.73-1.17,2.39s-1.55.95-2.48.89c-.56-.06-1.09-.22-1.59-.47-.75.94-1.75,1.38-3,1.31-.94-.06-1.73-.45-2.39-1.17s-.95-1.55-.89-2.48.41-1.72,1.03-2.34,1.38-.97,2.25-1.03c-.19-.38-.28-.78-.28-1.22,0-.81.3-1.52.89-2.11s1.33-.89,2.2-.89c.81,0,1.52.3,2.11.89s.89,1.3.89,2.11v.56Z" fill="#45f9ff" stroke-width="0"/><path d="M557.19,104.93c0-1.06-.44-1.98-1.31-2.77s-1.91-1.17-3.09-1.17c-1.25,0-2.3.39-3.14,1.17s-1.27,1.7-1.27,2.77c0,1.12.42,2.08,1.27,2.86s1.89,1.17,3.14,1.17,2.22-.39,3.09-1.17,1.31-1.73,1.31-2.86Z" fill="#4bff17" stroke-width="0"/><path d="M643.68,111.81c0-1.06-.44-1.98-1.31-2.77s-1.91-1.17-3.09-1.17c-1.25,0-2.3.39-3.14,1.17s-1.27,1.7-1.27,2.77c0,1.12.42,2.08,1.27,2.86s1.89,1.17,3.14,1.17,2.22-.39,3.09-1.17,1.31-1.73,1.31-2.86Z" fill="#ff17c8" stroke-width="0"/><path d="M627.41,117.87c.81.44,1.56,1.17,2.25,2.2s1.17,2.16,1.45,3.38.2,2.36-.23,3.42c-.81,1.69-1.78,2.89-2.91,3.61s-2.27,1.14-3.42,1.27-2.16.12-3,0-1.3-.16-1.36-.09c-.19.06-.45.47-.8,1.22s-1,1.58-1.97,2.48-2.48,1.61-4.55,2.11c-2.19.5-3.98.58-5.39.23s-2.44-.77-3.09-1.27l-.98-.75c-.19-.12-.39-.25-.61-.38s-.45-.19-.7-.19c-.06,0-.53.22-1.41.66s-2,.92-3.38,1.45-2.88.95-4.5,1.27-3.22.28-4.78-.09c-3.62-.75-6.3-1.66-8.02-2.72s-2.86-2-3.42-2.81-.88-1.25-.94-1.31c-.31-.12-.62-.12-.94,0s-.59.25-.84.38c-2,1-4.14,1.09-6.42.28s-3.89-2.19-4.83-4.12c-.62-1.31-.91-2.81-.84-4.5s.44-3.12,1.12-4.31c.88-1.44,1.73-2.38,2.58-2.81l1.27-.66-.52-1.36c-.34-.91-.55-1.7-.61-2.39-.25-3.88.75-6.83,3-8.86s5.12-3.05,8.62-3.05c1.44,0,2.84.22,4.22.66.88-2.12,2.33-3.86,4.36-5.2s4.36-2.05,6.98-2.11c2.5,0,4.77.61,6.8,1.83s3.55,2.8,4.55,4.73c2.56-1.5,5.34-2.25,8.34-2.25s5.47.62,7.78,1.88,4.12,2.94,5.44,5.06,1.91,4.47,1.78,7.03c-.06,1.31-.34,2.59-.84,3.84-.12.38-.12.78,0,1.22s.38.78.75,1.03Z" fill="#d2edf7" stroke-width="0"/><path d="M565.63,111.21c-.12-1.81.09-3.36.66-4.64s1.25-2.3,2.06-3.05,1.52-1.3,2.11-1.64l.89-.52-.84.75c-.56.5-1.11,1.27-1.64,2.3s-.67,2.3-.42,3.8c.19,1.56.53,2.84,1.03,3.84s1,1.78,1.5,2.34c.44.5.5,1.08.19,1.73s-.81.95-1.5.89c-.81-.12-1.62-.44-2.44-.94-.69-.44-1.12-1.22-1.31-2.34s-.28-1.97-.28-2.53Z" fill="#92cbeb" stroke-width="0"/><path d="M630.79,126.87c-.75,1.75-1.7,2.98-2.86,3.7s-2.31,1.12-3.47,1.22-2.14.08-2.95-.05-1.28-.16-1.41-.09-.38.47-.75,1.22-1.05,1.58-2.02,2.48-2.45,1.61-4.45,2.11c-2.19.5-3.98.58-5.39.23s-2.44-.77-3.09-1.27l-.98-.75c-.19-.12-.39-.25-.61-.38s-.45-.19-.7-.19c-.12,0-.62.23-1.5.7s-2,.97-3.38,1.5-2.86.94-4.45,1.22-3.17.23-4.73-.14c-3.62-.75-6.31-1.66-8.06-2.72s-2.89-2-3.42-2.81-.86-1.22-.98-1.22c-.25-.12-.53-.14-.84-.05s-.62.23-.94.42c-2,.94-4.12,1-6.38.19s-3.88-2.19-4.88-4.12c-.25-.62-.44-1.31-.56-2.06.38.38,1.06.95,2.06,1.73s2.34,1.41,4.03,1.88,3.78.42,6.28-.14c-.31-.75-.59-1.83-.84-3.23s-.12-2.77.38-4.08l.47,1.5c.31,1,.86,2.2,1.64,3.61s1.8,2.73,3.05,3.98,2.81,2.16,4.69,2.72c2.25.62,4.55.72,6.89.28s4.33-1.47,5.95-3.09c.88-.94,1.69-2.11,2.44-3.52s1.53-2.8,2.34-4.17,1.78-2.41,2.91-3.09c1.19-.75,2.48-1.17,3.89-1.27s2.64.3,3.7,1.17c.31.31.61.67.89,1.08s.36.98.23,1.73c-.19.88-.78,1.52-1.78,1.92s-2.06.55-3.19.42c-.19-.06-.66-.11-1.41-.14s-1.55.09-2.39.38-1.55.83-2.11,1.64-.78,2.06-.66,3.75c.12,1,.66,1.86,1.59,2.58s1.98,1.27,3.14,1.64,2.08.53,2.77.47c2.88-.19,5.11-.8,6.7-1.83s2.73-2.28,3.42-3.75,1.09-2.92,1.22-4.36.16-2.66.09-3.66c.81,1.44,1.28,2.69,1.41,3.75s.2,1.91.23,2.53.33,1,.89,1.12c1.38.38,2.67.08,3.89-.89s2.14-2.08,2.77-3.33.81-2.41.56-3.47l-.38-1.59c.81.88,1.3,1.94,1.45,3.19s.02,2.38-.42,3.38Z" fill="#78c0e8" stroke-width="0"/><path d="M598.63,94.8c2.56,1,4.23,2.19,5.02,3.56s1.09,2.64.94,3.8-.39,1.95-.7,2.39c-.44.62-1.03,1.12-1.78,1.5s-1.5.5-2.25.38-1.22-.44-1.41-.94c-.12-.25-.14-.52-.05-.8s.2-.55.33-.8c.25-.44.66-1.22,1.22-2.34s.59-2.53.09-4.22c-.12-.44-.39-.97-.8-1.59l-.61-.94Z" fill="#92cbeb" stroke-width="0"/><path d="M626.66,115.62c-.06.19-.38.61-.94,1.27s-1.56.98-3,.98c-.62,0-1.16-.23-1.59-.7s-.12-1.2.94-2.2c.88-.81,1.66-1.73,2.34-2.77s1.16-2.14,1.41-3.33c.38-1.88.12-3.56-.75-5.06,1.81,2.38,2.62,5.03,2.44,7.97-.06,1.31-.34,2.59-.84,3.84Z" fill="#92cbeb" stroke-width="0"/><path d="M601.63,147.87h-4.31v-5.91c0-.56.2-1.05.61-1.45s.92-.61,1.55-.61,1.14.2,1.55.61.61.89.61,1.45v5.91Z" fill="#039be5" stroke-width="0"/><path d="M593,147.87h-2.62v-9c0-.88.44-1.31,1.31-1.31s1.31.44,1.31,1.31v9Z" fill="#039be5" stroke-width="0"/><path d="M595.72,194.46c-4.81,0-9.59-.59-14.34-1.78s-9.27-3-13.55-5.44-8.11-5.5-11.48-9.19-6.08-8.05-8.11-13.08-3.17-10.73-3.42-17.11h101.81c-.56,13.94-5.69,25.22-15.38,33.84-4.69,4.06-10.09,7.2-16.22,9.42s-12.56,3.33-19.31,3.33Z" fill="url(#i)" stroke-width="0"/><path d="M551.57,171.68c0-.06.06,0,.19.19.06.06.11.12.14.19s.08.12.14.19c-.06-.06-.14-.16-.23-.28s-.17-.22-.23-.28Z" fill="#eb8f00" stroke-width="0"/><path d="M644.66,147.87h1.97c0,.31-.02.64-.05.98s-.05.67-.05.98c0,.12-.02.23-.05.33s-.05.2-.05.33c0,.25-.02.53-.05.84s-.08.59-.14.84c0,.19-.03.47-.09.84,0,.31-.03.59-.09.84s-.09.5-.09.75c-.06.19-.11.36-.14.52s-.05.3-.05.42l-.19.75c-.06.25-.09.5-.09.75-.12.38-.22.72-.28,1.03-.06.19-.12.41-.19.66s-.12.47-.19.66c0,.19-.03.38-.09.56s-.12.34-.19.47c-.06.25-.12.48-.19.7s-.12.42-.19.61c-.12.5-.25.84-.38,1.03-.06.31-.22.75-.47,1.31-.12.44-.25.78-.38,1.03-.19.44-.34.81-.47,1.12-.12.25-.28.59-.47,1.03l-.33.66c-.09.19-.17.38-.23.56-.12.12-.23.28-.33.47s-.17.38-.23.56c-.12.12-.23.28-.33.47s-.17.38-.23.56c-.12.19-.23.36-.33.52s-.2.33-.33.52-.23.36-.33.52-.2.33-.33.52c-.06.12-.16.28-.28.47l-.38.56c-.25.31-.47.62-.66.94-.25.31-.53.66-.84,1.03-.06.12-.16.27-.28.42s-.25.3-.38.42c-.12.19-.27.38-.42.56s-.3.34-.42.47l-.38.38-.38.38c-.12.25-.28.47-.47.66l-.56.56c-.25.25-.47.44-.66.56-.56.62-1.16,1.19-1.78,1.69-4.62,4.06-10,7.2-16.12,9.42s-12.56,3.33-19.31,3.33c-.5,0-.98-.02-1.45-.05s-.92-.05-1.36-.05h-.84l-2.25-.19c-.12-.06-.23-.09-.33-.09h-.33c-1-.12-1.91-.25-2.72-.38-.12,0-.38-.03-.75-.09s-.73-.14-1.08-.23-.7-.17-1.08-.23c-.12,0-.27-.02-.42-.05s-.3-.08-.42-.14c-.44-.12-.89-.23-1.36-.33s-.92-.2-1.36-.33c-.06-.06-.19-.09-.38-.09-.69-.25-1.47-.5-2.34-.75-.12-.06-.27-.12-.42-.19s-.3-.09-.42-.09c-.75-.31-1.44-.59-2.06-.84-.12,0-.23-.03-.33-.09s-.2-.09-.33-.09c-.88-.38-1.72-.75-2.53-1.12-.12-.06-.27-.14-.42-.23s-.3-.17-.42-.23c-.31-.12-.61-.27-.89-.42s-.55-.33-.8-.52c-.19-.06-.34-.12-.47-.19s-.28-.16-.47-.28c-.69-.38-1.44-.84-2.25-1.41-.12-.06-.25-.14-.38-.23s-.25-.17-.38-.23c-.25-.19-.52-.38-.8-.56s-.55-.38-.8-.56c-.38-.31-.69-.53-.94-.66-.44-.38-.94-.81-1.5-1.31-.12-.12-.27-.25-.42-.38s-.3-.25-.42-.38c-.56-.44-1.12-.97-1.69-1.59l-.84-.84c-.44-.5-.84-.94-1.22-1.31-.12-.12-.25-.27-.38-.42s-.25-.33-.38-.52c-.56-.62-1.09-1.31-1.59-2.06-.12-.12-.25-.28-.38-.47l-.38-.56c-.31-.38-.62-.84-.94-1.41-.06-.06-.16-.19-.28-.38,3.25,4.5,7.16,8.22,11.72,11.16s9.47,5.14,14.72,6.61,10.5,2.2,15.75,2.2c6.75,0,13.19-1.11,19.31-3.33s11.53-5.36,16.22-9.42c9-8,14.06-18.41,15.19-31.22Z" fill="#eb8f00" stroke-width="0"/><path d="M644.66,147.87h1.97c0,.31-.02.64-.05.98s-.05.67-.05.98c0,.12-.02.23-.05.33s-.05.2-.05.33c0,.25-.02.53-.05.84s-.08.59-.14.84c0,.19-.03.47-.09.84,0,.31-.03.59-.09.84s-.09.5-.09.75c-.06.19-.11.36-.14.52s-.05.3-.05.42l-.19.75c-.06.25-.09.5-.09.75-.12.38-.22.72-.28,1.03-.06.19-.12.41-.19.66s-.12.47-.19.66c0,.19-.03.38-.09.56s-.12.34-.19.47c-.06.25-.12.48-.19.7s-.12.42-.19.61c-.12.5-.25.84-.38,1.03-.06.31-.22.75-.47,1.31-.12.44-.25.78-.38,1.03-.19.44-.34.81-.47,1.12-.12.25-.28.59-.47,1.03l-.33.66c-.09.19-.17.38-.23.56-.12.12-.23.28-.33.47s-.17.38-.23.56c-.12.12-.23.28-.33.47s-.17.38-.23.56c-.12.19-.23.36-.33.52s-.2.33-.33.52-.23.36-.33.52-.2.33-.33.52c-.06.12-.16.28-.28.47l-.38.56c-.25.31-.47.62-.66.94-.25.31-.53.66-.84,1.03-.06.12-.16.27-.28.42s-.25.3-.38.42c-.12.19-.27.38-.42.56s-.3.34-.42.47l-.38.38-.38.38c-.12.25-.28.47-.47.66l-.56.56c-.25.25-.47.44-.66.56-.56.62-1.16,1.19-1.78,1.69-4.62,4.06-10,7.2-16.12,9.42s-12.56,3.33-19.31,3.33c-.5,0-.98-.02-1.45-.05s-.92-.05-1.36-.05h-.84l-2.25-.19c-.12-.06-.23-.09-.33-.09h-.33c-1-.12-1.91-.25-2.72-.38-.12,0-.38-.03-.75-.09s-.73-.14-1.08-.23-.7-.17-1.08-.23c-.12,0-.27-.02-.42-.05s-.3-.08-.42-.14c-.44-.12-.89-.23-1.36-.33s-.92-.2-1.36-.33c-.06-.06-.19-.09-.38-.09-.69-.25-1.47-.5-2.34-.75-.12-.06-.27-.12-.42-.19s-.3-.09-.42-.09c-.75-.31-1.44-.59-2.06-.84-.12,0-.23-.03-.33-.09s-.2-.09-.33-.09c-.88-.38-1.72-.75-2.53-1.12-.12-.06-.27-.14-.42-.23s-.3-.17-.42-.23c-.31-.12-.61-.27-.89-.42s-.55-.33-.8-.52c-.19-.06-.34-.12-.47-.19s-.28-.16-.47-.28c-.69-.38-1.44-.84-2.25-1.41-.12-.06-.25-.14-.38-.23s-.25-.17-.38-.23c-.25-.19-.52-.38-.8-.56s-.55-.38-.8-.56c-.38-.31-.69-.53-.94-.66-.44-.38-.94-.81-1.5-1.31-.12-.12-.27-.25-.42-.38s-.3-.25-.42-.38c-.56-.44-1.12-.97-1.69-1.59l-.84-.84c-.44-.5-.84-.94-1.22-1.31-.12-.12-.25-.27-.38-.42s-.25-.33-.38-.52c-.56-.62-1.09-1.31-1.59-2.06-.12-.12-.25-.28-.38-.47l-.38-.56c-.31-.38-.62-.84-.94-1.41-.06-.06-.16-.19-.28-.38,3.25,4.5,7.16,8.22,11.72,11.16s9.47,5.14,14.72,6.61,10.5,2.2,15.75,2.2c6.75,0,13.19-1.11,19.31-3.33s11.53-5.36,16.22-9.42c9-8,14.06-18.41,15.19-31.22Z" fill="#eb8f00" stroke-width="0"/><path d="M646.54,149.84c0-.31.02-.64.05-.98s.05-.67.05-.98h0c0,.56-.03,1.22-.09,1.97Z" fill="#eb8f00" stroke-width="0"/><path d="M646.54,149.84c0-.31.02-.64.05-.98s.05-.67.05-.98h0c0,.56-.03,1.22-.09,1.97Z" fill="url(#j)" stroke-width="0"/><path d="M608.19,182.27c0-1.62-.55-3.23-1.64-4.83s-2.56-2.91-4.41-3.94-3.86-1.55-6.05-1.55-4.3.52-6.14,1.55-3.31,2.34-4.41,3.94-1.64,3.2-1.64,4.83c0,2.44,1.19,4.34,3.56,5.72s5.25,2.06,8.62,2.06,6.16-.69,8.53-2.06,3.56-3.28,3.56-5.72Z" fill="#422b0d" stroke-width="0"/><path d="M589.99,156.09c0-3.85-1.36-7.1-4.08-9.75-2.72-2.65-5.93-3.98-9.65-3.98s-6.9,1.33-9.55,3.98c-2.65,2.65-3.98,5.9-3.98,9.75s1.33,6.9,3.98,9.55c2.65,2.65,5.84,3.98,9.55,3.98s6.93-1.33,9.65-3.98c2.72-2.65,4.08-5.84,4.08-9.55Z" fill="#fff" stroke-width="0"/><path d="M582.13,156.02c0-1.62-.58-3.02-1.73-4.17s-2.52-1.73-4.08-1.73-3.02.58-4.17,1.73-1.73,2.55-1.73,4.17.58,3.11,1.73,4.27,2.55,1.73,4.17,1.73,2.92-.58,4.08-1.73,1.73-2.58,1.73-4.27Z" fill="#422b0d" stroke-width="0"/><path d="M629.54,156.09c0-3.85-1.36-7.1-4.08-9.75-2.72-2.65-5.94-3.98-9.65-3.98s-6.9,1.33-9.55,3.98c-2.65,2.65-3.98,5.9-3.98,9.75s1.33,6.9,3.98,9.55c2.65,2.65,5.84,3.98,9.55,3.98s6.93-1.33,9.65-3.98c2.72-2.65,4.08-5.84,4.08-9.55Z" fill="#fff" stroke-width="0"/><path d="M621.7,156.09c0-1.62-.58-3.02-1.73-4.17s-2.52-1.73-4.08-1.73-3.02.58-4.17,1.73-1.73,2.55-1.73,4.17.58,3.11,1.73,4.27,2.55,1.73,4.17,1.73,2.92-.58,4.08-1.73,1.73-2.58,1.73-4.27Z" fill="#422b0d" stroke-width="0"/></g></svg>